<svg xmlns="http://www.w3.org/2000/svg" width="1600" height="900" viewBox="0 0 1600 900">
  <defs>
    <linearGradient id="bg" x1="0" y1="0" x2="1" y2="1">
      <stop offset="0" stop-color="#0B0B0B"/>
      <stop offset="0.5" stop-color="#1A1A1A"/>
      <stop offset="1" stop-color="#0B0B0B"/>
    </linearGradient>
    <radialGradient id="glow" cx="0.5" cy="0.4" r="0.6">
      <stop offset="0" stop-color="#D4A84B" stop-opacity="0.35"/>
      <stop offset="1" stop-color="#D4A84B" stop-opacity="0"/>
    </radialGradient>
    <linearGradient id="goldbar" x1="0" y1="0" x2="1" y2="0">
      <stop offset="0" stop-color="#E8C879"/>
      <stop offset="0.5" stop-color="#D4A84B"/>
      <stop offset="1" stop-color="#B8860B"/>
    </linearGradient>
  </defs>
  <rect width="1600" height="900" fill="url(#bg)"/>
  <rect width="1600" height="900" fill="url(#glow)"/>
  <g opacity="0.06" stroke="#D4A84B">
    <circle cx="1400" cy="120" r="220" fill="none" stroke-width="1.5"/>
    <circle cx="1400" cy="120" r="300" fill="none" stroke-width="1"/>
    <circle cx="120" cy="760" r="260" fill="none" stroke-width="1.5"/>
    <circle cx="120" cy="760" r="360" fill="none" stroke-width="1"/>
  </g>
  <g opacity="0.1" fill="#D4A84B">
    <rect x="60" y="60" width="8" height="8"/>
    <rect x="1532" y="780" width="8" height="8"/>
    <rect x="300" y="820" width="5" height="5"/>
    <rect x="1460" y="40" width="5" height="5"/>
  </g>
  <rect x="740" y="268" width="120" height="4" rx="2" fill="url(#goldbar)" opacity="0.9"/>
  <g transform="translate(800 300)">
    <rect x="-90" y="-90" width="180" height="180" rx="18" fill="#1A1A1A" stroke="#D4A84B" stroke-opacity="0.5"/>
    <g fill="#D4A84B">
      <rect x="-70" y="-70" width="140" height="10" rx="5"/>
      <rect x="-70" y="-45" width="100" height="10" rx="5"/>
      <rect x="-70" y="-20" width="120" height="10" rx="5"/>
      <rect x="-70" y="5" width="80" height="10" rx="5"/>
      <rect x="-70" y="30" width="110" height="10" rx="5"/>
      <rect x="-70" y="55" width="60" height="10" rx="5" opacity="0.6"/>
    </g>
  </g>
  <path d="M0 800 L1600 760" stroke="#D4A84B" stroke-opacity="0.25" stroke-width="1.5"/>
  <path d="M0 820 L1600 780" stroke="#D4A84B" stroke-opacity="0.12" stroke-width="1"/>
</svg>